<svg width="107" height="50" viewBox="0 0 107 50" fill="none" xmlns="http://www.w3.org/2000/svg">
<path fill-rule="evenodd" clip-rule="evenodd" d="M1.50952 13.7937V27.5874H2.85532C5.61142 27.5874 5.66084 27.4753 5.66084 21.2057C5.66084 15.7648 5.88464 13.2461 6.36845 13.2468C6.49828 13.2472 7.16776 14.9028 7.85688 16.9264C8.54562 18.95 9.54421 21.8371 10.0756 23.3417L11.0421 26.0778H12.8494C16.1037 26.0778 15.8504 27.1961 15.8504 12.8287V0.0377301H13.7748H11.6991V5.84014C11.6991 11.5222 11.4795 14.0013 10.9757 14.0013C10.8372 14.0013 9.60422 10.9021 8.23579 7.11384L5.74727 0.226426L3.62858 0.113213L1.50952 0V13.7937ZM20.3792 12.4694C20.3792 19.655 20.526 24.9921 20.7275 25.1162C20.9188 25.2347 23.5511 25.1302 26.5771 24.8841L32.0783 24.4369L32.0787 22.5213L32.0791 20.6056L28.7765 20.8094C23.8832 21.1113 24.1059 21.2763 24.2335 17.4446L24.3418 14.19L27.1722 14.0013L30.0027 13.8126V12.1143V10.416L27.1722 10.2273L24.3418 10.0386L24.2323 7.16178C24.1033 3.76411 24.0172 3.82486 28.9648 3.81693L32.0783 3.81166V1.92469V0.0377301H26.2287H20.3792V12.4694ZM35.4749 1.92469V3.81166L36.8901 3.81693C37.6687 3.81957 38.6846 3.92373 39.1484 4.0479C39.99 4.27358 39.9915 4.28793 40.0919 14.1379L40.1923 24.0022H41.8905H43.5888L43.6892 14.1379C43.8032 2.95535 43.5167 3.82825 47.0797 3.81693L48.6836 3.81166V1.92469V0.0377301H42.0792H35.4749V1.92469ZM51.7918 11.8313L51.8915 23.6248L53.6841 23.7399L55.4767 23.855V19.5252C55.4767 17.1434 55.5797 14.9266 55.7058 14.5983C55.8862 14.1284 56.5289 14.0013 58.7249 14.0013H61.515V11.9256V9.84994H58.7249C56.5289 9.84994 55.8862 9.72277 55.7058 9.25292C55.3042 8.20641 55.4597 4.73439 55.9295 4.26453C56.2167 3.97734 57.6655 3.81166 59.8922 3.81166H63.4019V1.92469V0.0377301H57.547H51.6922L51.7918 11.8313ZM66.7985 12.1143V24.1909L69.3459 24.1931C70.7471 24.1943 73.2945 24.3045 75.0068 24.4377L78.1202 24.68V22.7843C78.1202 20.963 78.0738 20.8792 76.9409 20.6528C76.2922 20.523 74.7977 20.4169 73.6198 20.4169C72.442 20.4169 71.2743 20.2131 71.0253 19.9641C70.6965 19.6354 70.5724 16.8442 70.5724 9.77446V0.0377301H68.6854H66.7985V12.1143ZM82.2716 12.4419V24.8464L83.8276 25.0551C86.5852 25.4249 86.4229 26.2133 86.4229 12.4513V0.0377301H84.3472H82.2716V12.4419ZM90.9516 0.390223C90.9516 0.604582 91.7819 2.86327 92.7967 5.40954C95.9441 13.3054 95.9219 12.1626 93.0563 18.8462C91.6909 22.0299 90.5742 24.8513 90.5742 25.1162C90.5742 25.6763 93.9496 26.2499 94.4282 25.7714C94.5999 25.5997 95.3029 24.1218 95.9902 22.4877C96.6778 20.8532 97.4167 19.4569 97.6326 19.3851C97.8485 19.3131 98.6923 20.9117 99.5075 22.9376C101.112 26.924 100.894 26.7322 104.673 27.4734C105.992 27.7323 106.083 28.1003 102.793 19.8622C101.47 16.5475 100.386 13.4556 100.386 12.9917C100.386 12.5279 101.044 10.6542 101.848 8.82796C102.651 7.00176 103.832 4.27699 104.472 2.7727L105.636 0.0377301H103.375H101.114L100.382 1.83035C99.2977 4.48002 98.361 6.1979 97.9236 6.33679C97.7107 6.40434 97.0076 5.05742 96.3608 3.3433L95.1844 0.226426L93.068 0.113213C91.7898 0.0449051 90.9516 0.15473 90.9516 0.390223Z" fill="#E72E2E"/>
<path fill-rule="evenodd" clip-rule="evenodd" d="M53.9071 40.3057C49.3535 42.3942 49.8102 48.3174 54.5838 49.0805C56.2795 49.3518 58.8733 48.4276 58.8733 47.5528C58.8733 46.5391 57.8189 46.1047 56.5923 46.6127C54.7461 47.3773 53.5898 46.6482 53.5898 44.7189C53.5898 43.4577 53.7532 43.1188 54.5332 42.7633C55.2424 42.4402 55.7164 42.4425 56.4417 42.7731C57.1241 43.0841 57.6218 43.0976 58.14 42.8203C60.4768 41.57 56.4134 39.1562 53.9071 40.3057ZM0.251718 40.4419C0.113215 40.5801 0 42.5383 0 44.7936C0 48.2415 0.098117 48.9318 0.617409 49.131C1.67147 49.5352 2.44551 48.7061 2.56892 47.0391C2.70176 45.2484 3.38257 44.9808 4.15132 46.4172C4.42908 46.9361 4.76874 47.3607 4.90611 47.3607C5.04348 47.3607 5.38313 46.9361 5.66089 46.4172C6.43643 44.968 7.11083 45.2495 7.2433 47.0776C7.35199 48.5823 7.42898 48.6815 8.49134 48.6815H9.62352L9.73182 44.9635C9.8024 42.5459 9.68731 41.0605 9.40276 40.7178C8.61363 39.7668 7.30483 40.1162 6.07491 41.6054L4.90611 43.0207L3.7373 41.6054C2.62362 40.257 0.98386 39.7098 0.251718 40.4419ZM12.3422 40.428C12.1962 40.574 12.0766 42.5331 12.0766 44.7819V48.8702H15.4848C18.1794 48.8702 18.9391 48.7506 19.1123 48.2992C19.5218 47.232 18.5081 46.6059 16.3706 46.6059C15.2542 46.6059 14.3409 46.4361 14.3409 46.2285C14.3409 46.0209 15.0931 45.8511 16.0124 45.8511C17.7065 45.8511 19.0414 45.0514 18.7629 44.2034C18.6855 43.9679 17.7016 43.6905 16.5758 43.5867C15.0923 43.4501 14.5296 43.2422 14.5296 42.832C14.5296 42.4066 15.0757 42.2376 16.7234 42.1519C18.7394 42.0474 18.9074 41.9707 18.7991 41.2084C18.69 40.4431 18.4454 40.3706 15.6444 40.2706C13.9741 40.211 12.4883 40.2815 12.3422 40.428ZM21.3857 40.4419C21.2472 40.5801 21.134 42.5331 21.134 44.7819V48.8702H24.1132C26.8802 48.8702 27.1761 48.7921 28.2645 47.7754C29.2963 46.8116 29.4366 46.4361 29.4366 44.6385C29.4366 42.4187 28.7007 41.2205 26.9228 40.5446C25.8574 40.1393 21.7639 40.0634 21.3857 40.4419ZM31.9527 40.4419C31.8142 40.5801 31.701 42.544 31.701 44.8057V48.9182L32.9275 48.7997L34.154 48.6815L34.2623 44.9635C34.3329 42.5459 34.2178 41.0605 33.9333 40.7178C33.4744 40.1646 32.3818 40.0125 31.9527 40.4419ZM39.179 40.8506C38.8688 41.2137 38.2137 42.53 37.7231 43.7754C37.2321 45.0208 36.6116 46.4644 36.3437 46.9833C36.0761 47.5022 35.8561 48.2241 35.8546 48.5872C35.8512 49.5156 37.5721 49.4518 38.3929 48.4929C38.8277 47.9853 39.5062 47.7381 40.4648 47.7381C41.3875 47.7381 42.157 48.0045 42.6454 48.4929C43.4251 49.2725 44.7108 49.4975 45.0697 48.9167C45.2931 48.5551 42.5427 41.542 41.8498 40.7072C41.252 39.9868 39.8526 40.0619 39.179 40.8506ZM61.3893 40.4419C61.2508 40.5801 61.1376 42.5331 61.1376 44.7819V48.8702H64.5459C67.2404 48.8702 68.0001 48.7506 68.1733 48.2992C68.5828 47.232 67.5692 46.6059 65.4316 46.6059C64.3153 46.6059 63.402 46.4361 63.402 46.2285C63.402 46.0209 64.1541 45.8511 65.0734 45.8511C66.7675 45.8511 68.1024 45.0514 67.8239 44.2034C67.7465 43.9679 66.7627 43.6905 65.6369 43.5867C64.1534 43.4501 63.5907 43.2422 63.5907 42.832C63.5907 42.4115 64.1243 42.2361 65.6663 42.15C68.0179 42.0187 68.6572 41.6318 67.9439 40.7721C67.585 40.34 66.7128 40.1902 64.5507 40.1902C62.9502 40.1902 61.5275 40.3034 61.3893 40.4419ZM70.4468 40.4419C70.3083 40.5801 70.195 42.544 70.195 44.8057V48.9182L71.4216 48.7997C72.573 48.6887 72.6553 48.583 72.764 47.0776C72.8281 46.1957 73.0228 45.4737 73.1968 45.4737C73.3712 45.4737 74.1524 46.2379 74.9328 47.172C76.011 48.4619 76.613 48.8702 77.4372 48.8702H78.5226L78.4158 44.6246L78.309 40.3789H77.3655C76.5077 40.3789 76.4114 40.5416 76.3069 42.1715C76.2439 43.1573 76.0545 43.9641 75.8865 43.9641C75.7186 43.9641 75.1034 43.2746 74.5196 42.4319C73.9354 41.5892 73.1594 40.7401 72.7945 40.545C72.0239 40.1325 70.8094 40.0793 70.4468 40.4419ZM80.3847 40.7563C79.757 41.5126 80.4545 42.3678 81.8274 42.5266C82.8215 42.6414 82.8396 42.6931 82.9472 45.7568L83.057 48.8702H84.1586H85.2602L85.37 45.7568C85.4776 42.6931 85.4957 42.6414 86.4897 42.5266C87.8627 42.3678 88.5601 41.5126 87.9325 40.7563C87.5804 40.3321 86.635 40.1902 84.1586 40.1902C81.6821 40.1902 80.7368 40.3321 80.3847 40.7563ZM90.0712 40.4419C89.9327 40.5801 89.8195 42.5395 89.8195 44.7955V48.8974L93.4685 48.7895C97.2522 48.6774 97.9312 48.3559 96.7911 47.2158C96.3793 46.804 95.5158 46.6059 94.1327 46.6059C91.3992 46.6059 91.4996 45.9194 94.2538 45.7756C96.2974 45.6688 96.4307 45.6032 96.5412 44.6442C96.656 43.652 96.602 43.623 94.4656 43.512C92.8183 43.4264 92.2725 43.2573 92.2725 42.832C92.2725 42.4115 92.8062 42.2361 94.3482 42.15C96.6997 42.0187 97.339 41.6318 96.6258 40.7721C96.2669 40.34 95.3947 40.1902 93.2326 40.1902C91.6321 40.1902 90.2093 40.3034 90.0712 40.4419ZM99.1599 40.4076C99.0045 40.5646 98.8769 42.544 98.8769 44.8057V48.9182L100.102 48.7997C101.123 48.7012 101.358 48.4981 101.517 47.5803C101.789 46.0077 102.436 45.9911 103.346 47.5335C104.013 48.6634 104.342 48.8702 105.468 48.8702C107 48.8702 107.029 48.805 106.155 47.3244C105.543 46.2889 105.543 46.1681 106.155 45.1325C106.999 43.703 106.975 42.3742 106.084 41.2745C105.463 40.5065 104.97 40.3699 102.405 40.2548C100.776 40.1815 99.3154 40.2502 99.1599 40.4076ZM26.4175 43.2094C26.8326 43.6245 27.1723 44.2479 27.1723 44.5948C27.1723 45.6032 26.0141 46.6059 24.8494 46.6059C23.8176 46.6059 23.7757 46.5349 23.7757 44.7819C23.7757 43.7785 23.889 42.8444 24.0275 42.7063C24.5143 42.2191 25.671 42.4629 26.4175 43.2094ZM104.092 43.4924C104.195 44.2147 104.04 44.3415 103.055 44.3415C102.062 44.3415 101.896 44.2023 101.896 43.3731C101.896 42.5391 102.04 42.421 102.934 42.524C103.677 42.6093 104.006 42.8844 104.092 43.4924ZM40.8807 44.4932C41.0939 45.0488 40.8497 45.4737 40.318 45.4737C40.1451 45.4737 40.0036 45.1341 40.0036 44.7189C40.0036 43.8536 40.5784 43.7056 40.8807 44.4932Z" fill="black"/>
</svg>
