<svg width="107" height="41" viewBox="0 0 107 41" fill="none" xmlns="http://www.w3.org/2000/svg">
<g clip-path="url(#clip0_10_12)">
<path fill-rule="evenodd" clip-rule="evenodd" d="M0.0908203 31.4706C2.73098 31.4706 4.87223 33.6076 4.87223 36.2452C4.87223 38.8816 2.73223 41.0199 0.0908203 41.0199V31.4706ZM85.6411 40.8819H94.9289V31.6072H85.6411V40.8819ZM87.3605 39.1649H93.2082V33.3255H87.3605V39.1649ZM52.5233 36.2452L57.1666 40.8832L61.8112 36.2452L57.1666 31.6085L52.5233 36.2465V36.2452ZM45.8856 31.4706C43.2454 31.4706 41.1054 33.6076 41.1054 36.2452C41.1054 38.8816 43.2454 41.0186 45.8856 41.0186C48.5257 41.0186 50.6657 38.8816 50.6657 36.2452C50.6657 33.6088 48.5257 31.4718 45.8856 31.4718V31.4706ZM45.8831 39.2941C44.2009 39.2941 42.8311 37.9275 42.8311 36.2465C42.8311 34.5655 44.1997 33.1988 45.8831 33.1988C47.5665 33.1988 48.9351 34.5655 48.9351 36.2465C48.9351 37.9275 47.5665 39.2941 45.8843 39.2941H45.8831ZM20.6535 31.4706C19.5959 31.4706 18.7399 32.3279 18.7399 33.3814C18.7399 34.435 19.5959 35.291 20.6522 35.291C21.7061 35.291 22.5633 34.4338 22.5633 33.3814C22.5633 32.3254 21.7048 31.4718 20.651 31.4718L20.6535 31.4706ZM20.6535 37.2006C19.5959 37.2006 18.7399 38.0554 18.7399 39.1102C18.7399 40.1626 19.5959 41.0174 20.6522 41.0174C21.7061 41.0174 22.5633 40.1626 22.5633 39.109C22.5633 38.0529 21.7048 37.1982 20.651 37.1982L20.6535 37.2006ZM26.3929 37.2006C25.3378 37.2006 24.4806 38.0554 24.4806 39.1102C24.4806 40.1626 25.3391 41.0174 26.3929 41.0174C27.4505 41.0174 28.3052 40.1626 28.3052 39.109C28.3052 38.0529 27.4492 37.1982 26.3929 37.1982V37.2006ZM26.3929 35.2898C27.4505 35.2898 28.3052 34.435 28.3052 33.3802C28.3052 32.3266 27.4492 31.4706 26.3929 31.4706C25.3378 31.4706 24.4806 32.3279 24.4806 33.3802C24.4806 34.4362 25.3391 35.2898 26.3929 35.2898ZM65.2737 31.6072L62.5689 40.8819H65.6632L68.368 31.6085H65.2737V31.6072ZM71.0803 31.6072L68.3742 40.8819H71.4698L74.1759 31.6085H71.0803V31.6072ZM29.7273 40.8819H40.4522L35.0898 31.6085L29.7273 40.8832V40.8819ZM14.7001 31.6072H9.33761L6.65639 36.2465L9.33761 40.8832H14.7001L17.3813 36.2465L14.7001 31.6097V31.6072ZM12.0188 38.1113C10.9862 38.1113 10.1526 37.2764 10.1526 36.2477C10.1526 35.2165 10.9862 34.3816 12.0188 34.3816C13.0515 34.3816 13.8851 35.2165 13.8851 36.2452C13.8851 37.2764 13.0515 38.1113 12.0188 38.1113ZM75.0182 38.6804V40.8819H82.9685V38.6804L78.9934 37.1398L75.0182 38.6804ZM78.9934 36.449C80.3707 36.449 81.4855 35.3345 81.4855 33.9604C81.4855 32.5863 80.3707 31.4718 78.9934 31.4718C77.6173 31.4718 76.5013 32.5875 76.5013 33.9616C76.5013 35.3358 77.6173 36.4502 78.9934 36.4502V36.449ZM100.468 37.8368H103.656V34.6537H100.471V37.8368H100.468ZM102.063 31.4718C99.4217 31.4718 97.2817 33.6088 97.2817 36.2465C97.2817 38.8829 99.4217 41.0211 102.062 41.0211C104.702 41.0211 106.842 38.8841 106.842 36.2465C106.842 33.61 104.702 31.4731 102.062 31.4731L102.063 31.4718Z" fill="#F65050"/>
<path fill-rule="evenodd" clip-rule="evenodd" d="M99.9328 0.149078V9.56665H88.4191V0.149078H82.3972V24.6534H88.4191V15.2383H99.934V24.6534H105.96V0.149078H99.9328ZM53.3678 0.149078V5.82199H61.511V24.6534H67.5516V5.82199H75.7134V0.149078H53.3678ZM34.7337 14.391L38.0507 6.4345L41.3751 14.3897H34.7337V14.391ZM41.3876 0.149078H34.7163L24.1618 24.6547H30.4325L32.4108 19.921H43.6893L45.6676 24.6547H51.9445L41.3876 0.149078ZM13.534 11.8589H6.13854V5.82074H13.534C15.2012 5.82074 16.3881 7.17499 16.3881 8.83984C16.3881 10.5047 15.1999 11.8589 13.534 11.8589ZM13.7231 0.149078H0.0917969V24.6534H6.13854V17.5306H13.7256C18.5257 17.5306 22.4287 13.6319 22.4287 8.83984C22.4262 4.05029 18.5232 0.149078 13.7231 0.149078Z" fill="#404853"/>
</g>
<defs>
<clipPath id="clip0_10_12">
<rect width="107" height="41" fill="white"/>
</clipPath>
</defs>
</svg>
