<svg width="115" height="21" viewBox="0 0 115 21" fill="none" xmlns="http://www.w3.org/2000/svg">
<mask id="mask0_16_10" style="mask-type:alpha" maskUnits="userSpaceOnUse" x="0" y="0" width="115" height="21">
<path d="M0 0H114.502V21H0V0Z" fill="black"/>
</mask>
<g mask="url(#mask0_16_10)">
<path fill-rule="evenodd" clip-rule="evenodd" d="M86.5499 4.84765C86.5465 4.9118 86.5316 4.97709 86.5419 5.0378C86.5625 5.14662 86.5969 5.25315 86.6255 5.36197C86.724 5.29324 86.8466 5.24169 86.9165 5.1512C87.3048 4.65063 87.6816 4.14318 88.0573 3.63459C88.2864 3.32531 88.3368 2.99885 88.1077 2.66781C87.9039 2.37457 87.6106 2.2795 87.2738 2.36999C86.8855 2.47308 86.7297 2.76518 86.6988 3.14662C86.653 3.71478 86.5992 4.28064 86.5499 4.84765ZM63.9359 11.449C63.9359 9.76976 62.5808 8.39061 60.9142 8.37457C59.2567 8.35853 57.8695 9.72852 57.8466 11.4032C57.8225 13.1489 59.1719 14.5097 60.9165 14.4983C62.6198 14.4868 63.9359 13.1592 63.9359 11.449ZM13.8878 15.7995C13.8878 17.2715 13.897 18.7434 13.8844 20.2142C13.8787 20.9439 13.834 20.9737 13.1284 20.9943C12.8405 21.0029 12.5525 21.0029 12.2647 20.9943C11.5648 20.9714 11.5224 20.945 11.5201 20.2039C11.5087 18.0596 11.5155 15.9164 11.5155 13.7732C11.5155 13.5166 11.519 13.2612 11.5087 13.0057C11.5052 12.9141 11.4628 12.8247 11.4388 12.7354C11.3357 12.7766 11.2051 12.7915 11.1295 12.8637C10.2796 13.6861 9.43536 14.5166 8.59114 15.3459C7.4491 16.4685 6.07568 16.9381 4.48461 16.8144C3.44104 16.7276 2.45165 16.3131 1.65792 15.63C0.864184 14.947 0.306763 14.0304 0.0653666 13.0115C-0.0869817 12.3494 -0.0102348 12.2463 0.686214 12.1764C0.814507 12.1638 0.941655 12.1615 1.06995 12.1535C2.08255 12.0882 2.08255 12.0882 2.53616 12.9989C2.82588 13.5766 3.3109 14.0331 3.90518 14.2872C4.49945 14.5414 5.16454 14.5768 5.78243 14.3872C7.01611 14.0092 7.77212 12.8751 7.64269 11.5968C7.51668 10.3448 6.46857 9.35739 5.094 9.3024C3.93593 9.25544 2.89125 8.95876 1.97946 8.23253C1.26062 7.66083 0.729164 6.88722 0.453398 6.01114C0.177631 5.13505 0.170151 4.19652 0.431919 3.31615C0.970292 1.52692 2.5625 0.210767 4.40672 0.0286364C6.81794 -0.209622 8.98289 1.22108 9.54532 3.42497C9.74693 4.21535 9.69881 4.28751 8.88553 4.39977C8.72721 4.42086 8.5683 4.43728 8.40901 4.44903C7.54647 4.51775 7.54647 4.51775 7.1593 3.70676C6.91087 3.17936 6.48002 2.75964 5.9463 2.5251C5.41258 2.29056 4.81203 2.25703 4.25552 2.4307C3.72791 2.58433 3.27255 2.92142 2.97157 3.38119C2.67059 3.84095 2.5438 4.39313 2.61405 4.93814C2.74349 6.01145 3.65643 6.83047 4.85689 6.94845C5.26926 6.98854 5.69309 6.98053 6.094 7.07445C7.83513 7.48797 9.03788 8.54295 9.716 10.2016C9.92562 10.7136 9.95655 10.7194 10.338 10.3517C11.2601 9.46506 12.1822 8.57617 13.0871 7.67125C16.0654 4.68958 20.9256 6.00916 22.1364 9.89347C22.1547 9.95533 22.1788 10.0149 22.1902 10.0767C22.2544 10.4341 22.4216 10.3918 22.6278 10.1913C23.5018 9.34708 24.3815 8.50744 25.2475 7.65407C26.07 6.84421 27.039 6.3173 28.1776 6.12829C30.2956 5.77663 31.9966 6.54754 33.4033 8.09851C33.6519 8.37342 33.6037 8.60252 33.3632 8.84421C32.0058 10.2027 30.6484 11.5601 29.299 12.9244C29.0069 13.2188 28.7618 13.1867 28.4858 12.9049C26.9989 11.3906 27.1135 11.8488 28.3712 10.5372C28.8798 10.0069 29.4159 9.50057 29.921 8.96563C30.1891 8.6827 30.1398 8.57617 29.7504 8.46964C28.1616 8.04009 26.4113 9.19358 26.0906 10.8809C25.7653 12.5956 27.0069 14.2967 28.7171 14.4811C29.7767 14.5945 30.6564 14.2509 31.3998 13.4868C33.2509 11.583 35.1215 9.69759 36.9737 7.7961C37.8019 6.94616 38.7675 6.37457 39.9405 6.14662C41.4754 5.8488 42.8626 6.189 44.1284 7.06758C44.7916 7.52921 44.7847 7.61741 44.1971 8.23138C44.1536 8.2772 44.11 8.32531 44.0619 8.36655C43.7756 8.61626 43.5167 8.99885 43.1891 9.07216C42.9233 9.13287 42.5728 8.8236 42.2601 8.67812C41.6017 8.37083 40.8554 8.30753 40.1547 8.49951C39.4539 8.6915 38.8441 9.12627 38.4342 9.72623C37.5763 10.9828 37.7927 12.7354 38.9291 13.74C39.4751 14.219 40.1727 14.4898 40.899 14.5044C41.6252 14.5191 42.3332 14.2767 42.8981 13.8202C43.1192 13.6392 43.3162 13.425 43.5144 13.2176C44.732 11.9473 45.9268 10.6541 47.1742 9.41466C47.6667 8.92554 47.889 8.42841 47.8729 7.72738C47.8283 5.87171 47.8615 4.01604 47.8557 2.16037C47.8523 1.3425 47.8535 1.24513 48.7171 1.15235C50.3529 0.978235 50.1948 0.982817 50.1959 2.45246C50.1971 3.57159 50.1879 4.69187 50.2017 5.811C50.2086 6.38259 50.2269 6.39519 50.8019 6.40664C51.5052 6.42153 52.2097 6.39862 52.913 6.41581C53.4663 6.42955 53.5384 6.48453 53.5384 7.01833C53.5384 9.11455 53.7618 8.69645 51.921 8.73998C51.5052 8.74914 51.0894 8.75143 50.6736 8.74112C50.3575 8.7331 50.1982 8.8614 50.1994 9.18786C50.2017 10.8179 50.1982 12.4502 50.2074 14.0813C50.2074 14.1913 50.291 14.3001 50.3368 14.4101C50.448 14.362 50.5831 14.3402 50.6656 14.2612C50.9657 13.9737 51.2486 13.6678 51.5362 13.3677C53.3323 11.5006 55.11 9.61283 56.9291 7.76861C59.9073 4.75143 64.8409 5.88201 66.0448 9.85796C66.2269 10.4605 66.2704 11.1134 66.3071 11.748C66.3506 12.5132 66.3151 13.2829 66.3254 14.0504C66.3265 14.1707 66.3895 14.2898 66.4239 14.4089C66.5579 14.3414 66.7252 14.3047 66.8202 14.2016C67.3185 13.6598 67.7985 13.1019 68.2842 12.5498C69.6587 10.9897 71.0218 9.4181 72.4102 7.87171C74.1593 5.92325 76.9061 5.47766 79.1375 6.75945C79.3861 6.90149 79.6163 7.07675 79.8489 7.24513C80.1856 7.48912 80.1925 7.74914 79.8809 8.02749C79.7378 8.15464 79.6095 8.29897 79.4732 8.43413C78.7446 9.1638 78.7446 9.1638 77.8282 8.71363C77.1627 8.38368 76.4002 8.30585 75.6818 8.49452C74.9633 8.6832 74.3374 9.12561 73.9199 9.73998C73.0722 10.9885 73.3013 12.7629 74.4365 13.7549C74.9983 14.2411 75.7169 14.508 76.46 14.5063C77.203 14.5046 77.9204 14.2345 78.48 13.7457C78.6244 13.6197 78.7561 13.48 78.8878 13.3402C80.5568 11.5716 82.2166 9.79496 83.8993 8.04124C84.236 7.68957 84.3815 7.33333 84.3723 6.8488C84.3494 5.53723 84.33 4.22451 84.3827 2.91409C84.448 1.27262 85.7389 0.0412366 87.3701 0.00114497C88.6782 -0.0309283 89.6805 0.5315 90.2555 1.69874C90.8431 2.89232 90.7332 4.08247 89.8546 5.10538C89.0372 6.04832 88.1816 6.95744 87.2899 7.83047C86.8431 8.27148 86.6713 8.73539 86.6885 9.35624C86.7274 10.7308 86.6942 12.1065 86.7057 13.4822C86.708 13.7915 86.7744 14.0985 86.8111 14.4066C87.0826 14.2073 87.3861 14.0424 87.6175 13.8053C89.535 11.8328 91.4434 9.84994 93.3471 7.86483C94.165 7.01145 95.1146 6.40435 96.2899 6.16953C98.4823 5.73081 100.239 6.49484 101.707 8.09393C101.955 8.36655 101.928 8.58877 101.68 8.8362C100.322 10.1916 98.9664 11.5509 97.6152 12.9141C97.3311 13.2016 97.0871 13.205 96.8019 12.9164C95.3025 11.3963 95.4319 11.8396 96.6702 10.5452C97.1788 10.0126 97.7149 9.50744 98.2223 8.97365C98.5087 8.67125 98.4743 8.58419 98.0803 8.47537C96.4915 8.03436 94.7034 9.19244 94.4033 10.8545C94.086 12.6186 95.2693 14.2761 96.9921 14.4777C98.0894 14.606 98.9898 14.2371 99.7526 13.441C101.899 11.2005 104.062 8.9748 106.218 6.74341L106.756 6.19587C106.981 5.96334 107.205 5.96678 107.407 6.21649C108.595 7.68041 109.79 9.13745 110.957 10.6197C111.312 11.0722 111.276 11.1077 111.701 10.6861C112.042 10.3482 112.372 10.0011 112.705 9.65407C112.945 9.40092 113.163 9.39748 113.448 9.62543C114.819 10.7297 114.831 10.8156 113.609 12.0848C112.479 13.26 111.369 14.457 110.215 15.6105C108.898 16.9267 106.947 17.2222 105.347 16.3895C105.095 16.2522 104.854 16.0936 104.629 15.9152C104.411 15.7491 104.406 15.5361 104.595 15.3379C104.858 15.0596 105.147 14.803 105.4 14.5155C105.709 14.1649 105.99 14.0344 106.465 14.3024C107.1 14.6598 107.763 14.5613 108.357 14.1203C109.253 13.4559 109.461 12.5063 108.811 11.6002C108.309 10.9015 107.697 10.2841 107.132 9.63001C106.879 9.33677 106.693 9.52119 106.506 9.71936L104.392 11.9462C103.4 12.9908 102.42 14.0458 101.416 15.0767C98.4961 18.0779 93.8764 17.1684 92.3208 13.2944C92.2841 13.205 92.2635 13.1111 92.2337 13.0195C92.1387 12.7434 91.9921 12.6598 91.7607 12.8958L91.2922 13.3769C90.448 14.252 89.5992 15.1226 88.7607 16.0023C87.9646 16.8339 87.0001 17.0641 85.9565 16.6518C84.9073 16.2371 84.3735 15.3918 84.3723 14.2486C84.3723 13.2577 84.3953 12.2669 84.3987 11.2738C84.3987 11.1638 84.3391 11.0527 84.3071 10.9416C84.204 11.0103 84.0814 11.0584 84.0012 11.1466C83.1833 12.0458 82.3723 12.9507 81.5591 13.8545C81.1524 14.307 80.7584 14.7709 80.3357 15.2062C77.6977 17.9267 73.1753 17.1707 71.5579 13.7457C71.5029 13.6312 71.456 13.5109 71.4044 13.394C71.1639 12.8557 71.1559 12.8488 70.7401 13.3127C70.1421 13.9794 69.5568 14.6575 68.9646 15.3299C68.7538 15.5704 68.5499 15.819 68.3254 16.0447C67.3116 17.0641 65.8844 17.118 64.7779 16.1901C64.2567 15.7514 64.2567 15.7514 63.6782 16.0848C60.7229 17.7812 57.1352 16.5613 55.8546 13.4227C55.8179 13.3345 55.7973 13.2394 55.763 13.1501C55.5488 12.6266 55.5247 12.6117 55.1467 12.9966C54.3403 13.8179 53.5476 14.6541 52.7504 15.4845C52.551 15.6919 52.3552 15.9038 52.1501 16.1065C51.385 16.858 50.4617 17.0298 49.4926 16.6735C48.511 16.3127 47.9531 15.5464 47.8798 14.488C47.8374 13.8832 47.8661 13.2738 47.8431 12.6667C47.8386 12.5613 47.7366 12.4605 47.6793 12.3574C47.6015 12.4055 47.5075 12.441 47.4457 12.5063C46.5568 13.4261 45.6931 14.3734 44.7801 15.2692C43.2223 16.7984 41.3517 17.197 39.2899 16.5808C37.7343 16.1145 36.6484 15.0641 35.9955 13.5762C35.9061 13.3711 35.842 13.1558 35.7687 12.9462C35.6725 12.6701 35.5533 12.5842 35.3128 12.8373C34.5831 13.6014 33.8397 14.3505 33.1043 15.1077C31.9772 16.2692 30.6198 16.8969 28.9875 16.8339C26.6874 16.7457 25.0734 15.6197 24.1192 13.5349C24.0673 13.4177 24.0199 13.2985 23.9772 13.1775C23.7091 12.4444 23.7068 12.441 23.1146 13.0126C22.3311 13.7663 21.5499 14.5235 20.771 15.2829C20.109 15.9397 19.2893 16.4154 18.3907 16.6644C18.299 16.6896 18.2074 16.7216 18.1135 16.74C17.0757 16.9565 16.9714 16.8683 16.9669 15.7824C16.9669 15.622 16.9634 15.4616 16.9669 15.3013C16.984 14.6346 16.9852 14.6346 17.6816 14.4307C19.9382 13.7698 20.7779 11.1821 19.2738 9.47537C18.4147 8.50172 17.3323 8.15578 16.0665 8.52692C14.858 8.88087 13.9817 9.91523 13.9313 11.1959C13.8706 12.7285 13.9165 14.2657 13.9165 15.8007H13.8878" fill="black"/>
</g>
</svg>
