<svg width="1455" height="880" viewBox="0 0 1455 880" fill="none" xmlns="http://www.w3.org/2000/svg">
<path d="M497.499 916.243L456.932 1171.23L554.494 1132.6L552.865 991.111L628.642 1014.74L653.142 840.947L497.499 916.243Z" stroke="#ECEED1" fill="#ECEED1"/>
<path d="M457.915 909.199L409.849 1164.27L323.05 1182.27L342.897 1082.03L252.231 1068.08L267.428 911.392L341.268 940.544L370.006 830.705L457.915 909.199Z" stroke="#ECEED1" fill="#ECEED1"/>
<path d="M667.295 767.279L493.303 855.788L397.353 730.384L341.228 633.024L500.348 512.184L584.43 605.722L501.435 606.678L521.977 740.45L628.514 656.218L667.295 767.279Z" fill="#ECEED1" stroke="#ECEED1"/>
<path d="M910.883 1077.5L681.575 1008.63L689.054 833.033L780.544 918.485L845.103 966.745L811.108 793.625L990.291 765.06L910.883 1077.5Z" stroke="#ECEED1" fill="#ECEED1"/>
<path d="M1182.41 774.349L1048.42 775.892L957.38 1076.96L1008.38 1076.37L1092.56 1005.4L1185.86 1074.33L1182.41 774.349Z" stroke="#ECEED1" fill="#ECEED1"/>
<path d="M1155.76 718.152L906.779 721.019L804.152 667.197L1093.7 582.858L1008.06 527.34L1189 477.754L1155.76 718.152Z" stroke="#ECEED1" fill="#ECEED1"/>
<path d="M762.612 837.686L698.225 804.425L664.402 646.304L705.203 585.33L848.565 746.191L761.57 747.192L791.11 837.358L762.612 837.686Z" stroke="#ECEED1" fill="#ECEED1"/>
<path d="M174.046 851.005L353.035 664.927L250.898 640.879L171.388 757.928L122.701 695.237L3.28898 823.865L174.046 851.005Z" stroke="#BDE4EC" fill="#BDE4EC"/>
<path d="M202.506 879.405L387.699 697.541L469.218 732.365L395.656 803.284L462.088 866.545L360.087 986.449L316.145 920.333L229.8 994.053L202.506 879.405Z" stroke="#BDE4EC" fill="#BDE4EC"/>
<path d="M-50.4195 876.236L142.945 903.018L150.034 1060.76L140.462 1172.73L-59.1703 1180.98L-74.7271 1056.17L-6.06967 1102.81L53.5097 981.288L-82.0527 989.54L-50.4195 876.236Z" fill="#BDE4EC" stroke="#BDE4EC"/>
<path d="M165.576 708.646L218.676 630.476L218.226 554.614L104.073 477.07L37.7758 557.76L165.576 708.646Z" stroke="#BDE4EC" fill="#BDE4EC"/>
<path d="M-73.0686 482.464L75.7693 670.006L-30.7045 809.841L-56.9605 687.435L-82.3675 610.94L-153.389 772.44L-316.761 693.498L-73.0686 482.464Z" stroke="#BDE4EC" fill="#BDE4EC"/>
<path d="M-6.93148 515.906L92.2123 437.582L68.7575 327.959L-191.177 126L-303.482 314.461L-211.249 377.114L-118.937 398.719L-6.93148 515.906Z" stroke="#BDE4EC" fill="#BDE4EC"/>
<path d="M1389.44 274.716L1157.7 160.886L1165.9 265.495L1301.6 305.589L1256.71 371.053L1415.59 445.628L1389.44 274.716Z" stroke="#FF9393" fill="#FF9393"/>
<path d="M1407.83 238.959L1178.21 117.937L1186.56 29.6855L1276.51 78.1599L1316.54 -4.3808L1461.81 56.2669L1412.21 118.254L1508.72 178.051L1407.83 238.959Z" stroke="#FF9393" fill="#FF9393"/>
<path d="M1481.83 480.839L1448.46 288.502L1596.55 233.718L1706.12 208.741L1774.76 396.382L1660.62 449.204L1684.13 369.605L1550.24 349.857L1599.38 476.47L1481.83 480.839Z" fill="#FF9393" stroke="#FF9393"/>
<path d="M1256.42 326.131L1165.8 299.355L1093.67 322.883L1054.57 455.227L1151.62 493.806L1256.42 326.131Z" stroke="#FF9393" fill="#FF9393"/>
<path d="M1113.65 622.315L1246.96 423.439L1412.58 482.278L1303.98 544.559L1238.86 592.052L1414.31 610.524L1388.86 790.177L1113.65 622.315Z" stroke="#FF9393" fill="#FF9393"/>
<path d="M1323.43 971.049L1361.4 842.541L1100.47 666.909L1086.02 715.819L1129.07 817.17L1035.73 886.044L1323.43 971.049Z" stroke="#FF9393" fill="#FF9393"/>
<path d="M1125.36 549.135L1020.57 478.549L923.295 534.269L810.075 843.356L1023.78 892.942L1055.38 786.012L1047.85 691.505L1125.36 549.135Z" stroke="#FF9393" fill="#FF9393"/>
<path d="M1384.98 962.124L1455.54 723.329L1537.19 641.094L1532.55 942.639L1610.82 877.132L1604.95 1064.65L1384.98 962.124Z" stroke="#FF9393" fill="#FF9393"/>
<path d="M1386.48 551.207L1437.22 499.464L1598.29 513.686L1644.55 570.628L1448.62 660.285L1473.27 576.85L1378.4 578.539L1386.48 551.207Z" stroke="#FF9393" fill="#FF9393"/>
</svg>
